<svg width="127" height="113" viewBox="0 0 127 113" fill="none" xmlns="http://www.w3.org/2000/svg">
<g id="Group 26086177" filter="url(#filter0_d_1_31)">
<g id="OBJECTS">
<g id="Group">
<g id="Clip path group">
<mask id="mask0_1_31" style="mask-type:luminance" maskUnits="userSpaceOnUse" x="6" y="8" width="117" height="91">
<g id="SVGID_00000030444514468157322500000006827033220647553175_">
<path id="Vector" d="M95.2018 98.3866C105.858 93.0365 117.415 86.713 121.721 75.2996C123.672 70.1293 123.636 63.6403 119.888 59.6681C115.603 55.1256 108.139 55.3783 103.673 51.0254C98.8361 46.3098 99.3931 38.3373 100.321 31.5292C101.25 24.7212 101.821 16.7542 96.9978 12.0231C94.3877 9.46244 90.6567 8.45744 87.0605 8.3574C79.3142 8.14187 71.5579 11.9114 66.7738 18.2165C62.3079 24.102 60.547 31.625 58.1198 38.6727C57.1712 41.4271 55.983 44.3019 53.6423 45.9416C51.017 47.7805 47.5115 47.6287 44.4686 46.7069C37.4059 44.5676 31.3979 38.7486 24.0435 38.465C17.7692 38.2232 11.8863 42.5053 8.90472 48.2205C1.16418 63.0566 14.7648 94.2909 19.6376 98.3866H95.2018Z" fill="white"/>
</g>
</mask>
<g mask="url(#mask0_1_31)">
<g id="Group_2">
<path id="Vector_2" d="M95.2018 98.3866C105.858 93.0365 117.415 86.713 121.721 75.2996C123.672 70.1293 123.636 63.6403 119.888 59.6681C115.603 55.1256 108.139 55.3783 103.673 51.0254C98.8361 46.3098 99.3931 38.3373 100.321 31.5292C101.25 24.7212 101.821 16.7542 96.9978 12.0231C94.3877 9.46244 90.6567 8.45744 87.0605 8.3574C79.3142 8.14187 71.5579 11.9114 66.7738 18.2165C62.3079 24.102 60.547 31.625 58.1198 38.6727C57.1712 41.4271 55.983 44.3019 53.6423 45.9416C51.017 47.7805 47.5115 47.6287 44.4686 46.7069C37.4059 44.5676 31.3979 38.7486 24.0435 38.465C17.7692 38.2232 11.8863 42.5053 8.90472 48.2205C1.16418 63.0566 14.7648 94.2909 19.6376 98.3866H95.2018Z" fill="#C1DEFD"/>
</g>
</g>
</g>
<g id="Clip path group_2">
<mask id="mask1_1_31" style="mask-type:luminance" maskUnits="userSpaceOnUse" x="6" y="8" width="117" height="91">
<g id="SVGID_00000030444514468157322500000006827033220647553175__2">
<path id="Vector_3" d="M95.2018 98.3866C105.858 93.0365 117.415 86.713 121.721 75.2996C123.672 70.1293 123.636 63.6403 119.888 59.6681C115.603 55.1256 108.139 55.3783 103.673 51.0254C98.8361 46.3098 99.3931 38.3373 100.321 31.5292C101.25 24.7212 101.821 16.7542 96.9978 12.0231C94.3877 9.46244 90.6567 8.45744 87.0605 8.3574C79.3142 8.14187 71.5579 11.9114 66.7738 18.2165C62.3079 24.102 60.547 31.625 58.1198 38.6727C57.1712 41.4271 55.983 44.3019 53.6423 45.9416C51.017 47.7805 47.5115 47.6287 44.4686 46.7069C37.4059 44.5676 31.3979 38.7486 24.0435 38.465C17.7692 38.2232 11.8863 42.5053 8.90472 48.2205C1.16418 63.0566 14.7648 94.2909 19.6376 98.3866H95.2018Z" fill="white"/>
</g>
</mask>
<g mask="url(#mask1_1_31)">
<g id="Group_3">
<g id="Group_4">
<path id="Vector_4" d="M7.35769 86.099C3.48676 78.249 3.98609 68.3563 8.55529 60.9269C9.74005 59.0007 11.2069 57.0468 13.1738 55.9279C14.9651 54.9088 17.3849 54.7462 19.036 56.1681C20.4865 57.4174 20.6257 59.837 19.2126 61.1969C17.5548 62.7921 15.1066 61.1969 14.1328 59.557C13.1827 57.9566 13.0157 55.9217 13.4626 54.1245C13.9588 52.1281 15.2856 50.521 16.9464 49.4257C20.5426 47.054 25.1648 47.047 29.2163 47.8763C37.4876 49.5694 44.6161 54.7849 52.8552 56.5943C57.3515 57.5817 61.8638 57.2024 66.2149 55.6988C70.5391 54.2045 74.7678 51.9044 78.3176 48.9361C81.7726 46.0469 84.5824 42.2576 85.7355 37.7659C86.2841 35.6287 86.4605 33.3311 86.0592 31.1487C85.7473 29.4529 84.6385 27.4223 82.6703 27.739C81.7228 27.8913 81.1474 28.7632 80.7288 29.5809C80.3013 30.4159 80.0408 31.3341 79.9325 32.2711C79.6963 34.3136 80.1571 36.4166 81.0622 38.2349C83.0879 42.3048 87.175 44.7184 90.9089 46.845C92.968 48.0178 95.0505 49.176 96.9331 50.6419C98.7836 52.0828 100.362 53.8358 101.544 55.9005C102.661 57.8498 103.421 60.0146 103.773 62.251C104.121 64.4586 104.16 66.9189 103.433 69.0522C102.734 71.1034 100.784 72.9809 98.5309 72.2432C96.4453 71.5603 96.4615 69.0872 97.602 67.5395C99.0444 65.5818 101.518 65.6574 103.524 66.5911C105.451 67.488 107.116 68.9983 108.542 70.5886C113.815 76.4681 116.043 85.0991 114.49 92.9347C114.111 94.8487 113.502 96.7058 112.671 98.4606C112.611 98.5873 112.795 98.699 112.855 98.5718C116.321 91.2478 115.801 82.2964 112.021 75.2094C111.067 73.4209 109.899 71.7503 108.542 70.266C107.1 68.6898 105.414 67.1884 103.469 66.3276C101.749 65.5661 99.6247 65.3573 98.105 66.6752C96.9747 67.6555 96.1742 69.4237 96.7881 70.9213C97.4699 72.584 99.4431 72.9123 100.929 72.311C102.812 71.5489 103.702 69.4971 104.018 67.5557C104.738 63.1269 103.511 58.3592 101.052 54.7001C98.2746 50.5679 93.9444 48.3705 89.8208 45.9688C85.7609 43.6045 81.4399 40.5385 80.332 35.5428C79.8274 33.2679 80.0395 30.5748 81.5262 28.7106C82.4014 27.6132 83.8844 27.7756 84.7916 28.7559C85.697 29.7341 85.9174 31.2186 86.0152 32.5132C86.4031 37.6545 84.1122 42.6369 80.7574 46.3109C77.3787 50.011 72.9335 52.6958 68.4107 54.6179C63.7188 56.6119 58.7253 57.496 53.6995 56.5439C44.9768 54.8915 37.5295 49.2004 28.8011 47.5724C24.781 46.8225 20.2286 46.9263 16.7079 49.3235C15.1596 50.3775 13.8954 51.8822 13.3475 53.7336C12.8582 55.3876 12.8917 57.2431 13.5423 58.8456C14.2041 60.4758 15.6875 61.9704 17.4748 62.0639C19.0826 62.148 20.1982 60.7181 20.3906 59.1731C20.6071 57.4353 19.5796 55.9653 18.0551 55.3131C16.1965 54.5179 14.131 54.9715 12.4993 56.0944C10.7408 57.3046 9.39459 59.1254 8.28479 60.9581C7.13541 62.8564 6.245 64.9217 5.623 67.0664C4.39237 71.3092 4.20417 75.879 5.10742 80.2105C5.54201 82.2948 6.23714 84.3115 7.17342 86.2107C7.23633 86.3362 7.41981 86.225 7.35769 86.099Z" fill="white"/>
</g>
</g>
</g>
</g>
</g>
<path id="Vector_5" opacity="0.5" d="M121.569 98.4983H4.34625C4.11952 98.7073 4 98.9196 4 99.1346C4 102.374 30.3961 105 62.9574 105C95.5187 105 121.915 102.374 121.915 99.1346C121.915 98.9196 121.795 98.7073 121.569 98.4983Z" fill="#1E1E1E"/>
<g id="Group_5">
<g id="Clip path group_3">
<mask id="mask2_1_31" style="mask-type:luminance" maskUnits="userSpaceOnUse" x="68" y="69" width="26" height="29">
<g id="SVGID_00000116205776173072570000000009025210877221742220_">
<path id="Vector_6" d="M69.939 93.803C71.6976 97.1794 75.7944 98.5292 79.0344 96.664C79.1301 96.609 79.2245 96.552 79.3178 96.4927C81.2585 95.2621 82.6244 93.2616 83.7155 91.1952C84.8067 89.1288 85.6835 86.9358 86.944 84.9752C88.1484 83.1013 89.6803 81.476 90.9499 79.649C92.2196 77.8217 93.2469 75.6916 93.2157 73.4417C93.1963 72.0417 92.6956 70.5682 91.5866 69.7655C90.1893 68.754 88.2103 69.0848 86.7679 70.0258C85.3255 70.9668 84.2702 72.4069 83.1368 73.725C81.3248 75.8329 79.2428 77.6919 76.9624 79.2383C74.9418 80.6085 72.7481 81.7493 70.9901 83.4635C69.2321 85.178 67.9357 87.6619 68.3671 90.1208C68.5055 90.9076 69.2088 92.4011 69.939 93.803Z" fill="white"/>
</g>
</mask>
<g mask="url(#mask2_1_31)">
<g id="Group_6">
<path id="Vector_7" d="M69.939 93.803C71.6976 97.1794 75.7944 98.5292 79.0344 96.664C79.1301 96.609 79.2245 96.552 79.3178 96.4927C81.2585 95.2621 82.6244 93.2616 83.7155 91.1952C84.8067 89.1288 85.6835 86.9358 86.944 84.9752C88.1484 83.1013 89.6803 81.476 90.9499 79.649C92.2196 77.8217 93.2469 75.6916 93.2157 73.4417C93.1963 72.0417 92.6956 70.5682 91.5866 69.7655C90.1893 68.754 88.2103 69.0848 86.7679 70.0258C85.3255 70.9668 84.2702 72.4069 83.1368 73.725C81.3248 75.8329 79.2428 77.6919 76.9624 79.2383C74.9418 80.6085 72.7481 81.7493 70.9901 83.4635C69.2321 85.178 67.9357 87.6619 68.3671 90.1208C68.5055 90.9076 69.2088 92.4011 69.939 93.803Z" fill="#6363DB"/>
</g>
</g>
</g>
<g id="Clip path group_4">
<mask id="mask3_1_31" style="mask-type:luminance" maskUnits="userSpaceOnUse" x="68" y="69" width="26" height="29">
<g id="SVGID_00000116205776173072570000000009025210877221742220__2">
<path id="Vector_8" d="M69.939 93.803C71.6976 97.1794 75.7944 98.5292 79.0344 96.664C79.1301 96.609 79.2245 96.552 79.3178 96.4927C81.2585 95.2621 82.6244 93.2616 83.7155 91.1952C84.8067 89.1288 85.6835 86.9358 86.944 84.9752C88.1484 83.1013 89.6803 81.476 90.9499 79.649C92.2196 77.8217 93.2469 75.6916 93.2157 73.4417C93.1963 72.0417 92.6956 70.5682 91.5866 69.7655C90.1893 68.754 88.2103 69.0848 86.7679 70.0258C85.3255 70.9668 84.2702 72.4069 83.1368 73.725C81.3248 75.8329 79.2428 77.6919 76.9624 79.2383C74.9418 80.6085 72.7481 81.7493 70.9901 83.4635C69.2321 85.178 67.9357 87.6619 68.3671 90.1208C68.5055 90.9076 69.2088 92.4011 69.939 93.803Z" fill="white"/>
</g>
</mask>
<g mask="url(#mask3_1_31)">
<g id="Group_7">
<g id="Group_8">
<path id="Vector_9" d="M92.3731 68.4548C90.5994 70.1132 89.1569 72.0952 87.7863 74.1104C86.3882 76.1659 85.0134 78.2301 83.4924 80.1924C80.4626 84.101 77.07 87.6983 73.4641 91.0389C71.4288 92.9244 69.324 94.7284 67.1712 96.4686C66.8803 96.704 67.2894 97.122 67.5775 96.8889C71.3963 93.8015 75.0664 90.5097 78.4618 86.9294C80.1562 85.1431 81.7815 83.286 83.3178 81.3525C84.8446 79.4311 86.2537 77.4247 87.6257 75.3832C89.1753 73.0769 90.7543 70.7682 92.7794 68.8748C93.0543 68.618 92.647 68.1989 92.3731 68.4548Z" fill="white"/>
</g>
</g>
</g>
</g>
<g id="Clip path group_5">
<mask id="mask4_1_31" style="mask-type:luminance" maskUnits="userSpaceOnUse" x="68" y="69" width="26" height="29">
<g id="SVGID_00000116205776173072570000000009025210877221742220__3">
<path id="Vector_10" d="M69.939 93.803C71.6976 97.1794 75.7944 98.5292 79.0344 96.664C79.1301 96.609 79.2245 96.552 79.3178 96.4927C81.2585 95.2621 82.6244 93.2616 83.7155 91.1952C84.8067 89.1288 85.6835 86.9358 86.944 84.9752C88.1484 83.1013 89.6803 81.476 90.9499 79.649C92.2196 77.8217 93.2469 75.6916 93.2157 73.4417C93.1963 72.0417 92.6956 70.5682 91.5866 69.7655C90.1893 68.754 88.2103 69.0848 86.7679 70.0258C85.3255 70.9668 84.2702 72.4069 83.1368 73.725C81.3248 75.8329 79.2428 77.6919 76.9624 79.2383C74.9418 80.6085 72.7481 81.7493 70.9901 83.4635C69.2321 85.178 67.9357 87.6619 68.3671 90.1208C68.5055 90.9076 69.2088 92.4011 69.939 93.803Z" fill="white"/>
</g>
</mask>
<g mask="url(#mask4_1_31)">
<g id="Group_9">
<g id="Group_10">
<path id="Vector_11" d="M88.2177 84.8927C85.2904 86.1821 82.0407 86.6177 78.8924 86.143C78.7116 86.1156 78.6334 86.4019 78.8161 86.4296C82.0499 86.917 85.3564 86.4735 88.3629 85.1494C88.5322 85.0746 88.386 84.8187 88.2177 84.8927Z" fill="white"/>
</g>
</g>
</g>
</g>
<g id="Clip path group_6">
<mask id="mask5_1_31" style="mask-type:luminance" maskUnits="userSpaceOnUse" x="68" y="69" width="26" height="29">
<g id="SVGID_00000116205776173072570000000009025210877221742220__4">
<path id="Vector_12" d="M69.939 93.803C71.6976 97.1794 75.7944 98.5292 79.0344 96.664C79.1301 96.609 79.2245 96.552 79.3178 96.4927C81.2585 95.2621 82.6244 93.2616 83.7155 91.1952C84.8067 89.1288 85.6835 86.9358 86.944 84.9752C88.1484 83.1013 89.6803 81.476 90.9499 79.649C92.2196 77.8217 93.2469 75.6916 93.2157 73.4417C93.1963 72.0417 92.6956 70.5682 91.5866 69.7655C90.1893 68.754 88.2103 69.0848 86.7679 70.0258C85.3255 70.9668 84.2702 72.4069 83.1368 73.725C81.3248 75.8329 79.2428 77.6919 76.9624 79.2383C74.9418 80.6085 72.7481 81.7493 70.9901 83.4635C69.2321 85.178 67.9357 87.6619 68.3671 90.1208C68.5055 90.9076 69.2088 92.4011 69.939 93.803Z" fill="white"/>
</g>
</mask>
<g mask="url(#mask5_1_31)">
<g id="Group_11">
<g id="Group_12">
<path id="Vector_13" d="M76.2148 88.8412C75.7792 84.2362 76.6208 79.5493 78.6376 75.4181C78.7206 75.2479 78.4729 75.0971 78.3896 75.2682C76.3509 79.4446 75.4869 84.1841 75.9275 88.8415C75.9454 89.0299 76.2329 89.0318 76.2148 88.8412Z" fill="white"/>
</g>
</g>
</g>
</g>
<g id="Clip path group_7">
<mask id="mask6_1_31" style="mask-type:luminance" maskUnits="userSpaceOnUse" x="68" y="69" width="26" height="29">
<g id="SVGID_00000116205776173072570000000009025210877221742220__5">
<path id="Vector_14" d="M69.939 93.803C71.6976 97.1794 75.7944 98.5292 79.0344 96.664C79.1301 96.609 79.2245 96.552 79.3178 96.4927C81.2585 95.2621 82.6244 93.2616 83.7155 91.1952C84.8067 89.1288 85.6835 86.9358 86.944 84.9752C88.1484 83.1013 89.6803 81.476 90.9499 79.649C92.2196 77.8217 93.2469 75.6916 93.2157 73.4417C93.1963 72.0417 92.6956 70.5682 91.5866 69.7655C90.1893 68.754 88.2103 69.0848 86.7679 70.0258C85.3255 70.9668 84.2702 72.4069 83.1368 73.725C81.3248 75.8329 79.2428 77.6919 76.9624 79.2383C74.9418 80.6085 72.7481 81.7493 70.9901 83.4635C69.2321 85.178 67.9357 87.6619 68.3671 90.1208C68.5055 90.9076 69.2088 92.4011 69.939 93.803Z" fill="white"/>
</g>
</mask>
<g mask="url(#mask6_1_31)">
<g id="Group_13">
<g id="Group_14">
<path id="Vector_15" d="M84.5759 79.2468C83.9211 75.1875 85.4862 71.2494 87.4484 67.8204C87.5427 67.6556 87.2945 67.5059 87.2004 67.6705C85.1945 71.1759 83.6307 75.1813 84.2991 79.3257C84.3289 79.5138 84.606 79.4341 84.5759 79.2468Z" fill="white"/>
</g>
</g>
</g>
</g>
<g id="Clip path group_8">
<mask id="mask7_1_31" style="mask-type:luminance" maskUnits="userSpaceOnUse" x="68" y="69" width="26" height="29">
<g id="SVGID_00000116205776173072570000000009025210877221742220__6">
<path id="Vector_16" d="M69.939 93.803C71.6976 97.1794 75.7944 98.5292 79.0344 96.664C79.1301 96.609 79.2245 96.552 79.3178 96.4927C81.2585 95.2621 82.6244 93.2616 83.7155 91.1952C84.8067 89.1288 85.6835 86.9358 86.944 84.9752C88.1484 83.1013 89.6803 81.476 90.9499 79.649C92.2196 77.8217 93.2469 75.6916 93.2157 73.4417C93.1963 72.0417 92.6956 70.5682 91.5866 69.7655C90.1893 68.754 88.2103 69.0848 86.7679 70.0258C85.3255 70.9668 84.2702 72.4069 83.1368 73.725C81.3248 75.8329 79.2428 77.6919 76.9624 79.2383C74.9418 80.6085 72.7481 81.7493 70.9901 83.4635C69.2321 85.178 67.9357 87.6619 68.3671 90.1208C68.5055 90.9076 69.2088 92.4011 69.939 93.803Z" fill="white"/>
</g>
</mask>
<g mask="url(#mask7_1_31)">
<g id="Group_15">
<g id="Group_16">
<path id="Vector_17" d="M87.2688 75.775C89.923 75.9593 92.8982 76.0849 95.0185 74.1218C95.1566 73.9941 94.9527 73.7842 94.8153 73.9117C92.7598 75.8148 89.8352 75.656 87.2688 75.4776C87.0842 75.4648 87.085 75.7622 87.2688 75.775Z" fill="white"/>
</g>
</g>
</g>
</g>
</g>
<g id="Group_17">
<g id="Group_18">
<path id="Vector_18" d="M26.5592 83.3325C25.7888 80.6555 24.4714 78.1486 22.7192 76.0239C21.2574 74.2514 19.4443 72.6519 18.751 70.4351C18.463 69.5138 18.4457 68.3643 19.1494 67.7259C19.6396 67.281 20.367 67.21 20.9989 67.3761C21.6309 67.5423 22.1916 67.9132 22.7399 68.2784C22.4552 67.3748 22.2277 66.4522 22.0592 65.518C21.882 64.536 21.7701 63.5245 21.9349 62.5401C22.0996 61.5557 22.5706 60.5928 23.3645 60.024C24.1585 59.4552 25.2981 59.3617 26.0808 59.9467C26.8394 60.5136 27.1149 61.5351 27.2999 62.484C27.8871 65.4936 28.0703 68.5869 27.843 71.648C28.0252 70.5852 28.2774 69.5133 28.8236 68.594C29.3699 67.6744 30.2545 66.9182 31.2888 66.7748C31.5598 66.7371 31.8429 66.7431 32.0972 66.8475C32.5991 67.0533 32.8922 67.5947 33.0654 68.1236C33.3679 69.0478 33.4253 70.0392 33.398 71.0144C33.2832 75.1247 31.7286 79.0275 30.178 82.8136L28.3044 89.2494L26.5592 83.3325Z" fill="#6363DB"/>
</g>
<g id="Group_19">
<g id="Clip path group_9">
<mask id="mask8_1_31" style="mask-type:luminance" maskUnits="userSpaceOnUse" x="8" y="69" width="26" height="29">
<g id="SVGID_00000021084602958394925580000004869667285862145175_">
<path id="Vector_19" d="M32.1538 93.803C30.3952 97.1794 26.2984 98.5292 23.0584 96.664C22.9627 96.609 22.8683 96.552 22.775 96.4927C20.8343 95.2621 19.4684 93.2616 18.3772 91.1952C17.2861 89.1288 16.4093 86.9358 15.1488 84.9752C13.9443 83.1013 12.4125 81.476 11.1429 79.649C9.87317 77.8217 8.84593 75.6916 8.87713 73.4417C8.89652 72.0417 9.39716 70.5682 10.5062 69.7655C11.9035 68.754 13.8825 69.0848 15.3249 70.0258C16.7673 70.9668 17.8226 72.4069 18.956 73.725C20.768 75.8329 22.85 77.6919 25.1304 79.2383C27.151 80.6085 29.3447 81.7493 31.1027 83.4635C32.8607 85.178 34.1571 87.6619 33.7257 90.1208C33.5873 90.9076 32.8838 92.4011 32.1538 93.803Z" fill="white"/>
</g>
</mask>
<g mask="url(#mask8_1_31)">
<g id="Group_20">
<path id="Vector_20" d="M32.1538 93.803C30.3952 97.1794 26.2984 98.5292 23.0584 96.664C22.9627 96.609 22.8683 96.552 22.775 96.4927C20.8343 95.2621 19.4684 93.2616 18.3772 91.1952C17.2861 89.1288 16.4093 86.9358 15.1488 84.9752C13.9443 83.1013 12.4125 81.476 11.1429 79.649C9.87317 77.8217 8.84593 75.6916 8.87713 73.4417C8.89652 72.0417 9.39716 70.5682 10.5062 69.7655C11.9035 68.754 13.8825 69.0848 15.3249 70.0258C16.7673 70.9668 17.8226 72.4069 18.956 73.725C20.768 75.8329 22.85 77.6919 25.1304 79.2383C27.151 80.6085 29.3447 81.7493 31.1027 83.4635C32.8607 85.178 34.1571 87.6619 33.7257 90.1208C33.5873 90.9076 32.8838 92.4011 32.1538 93.803Z" fill="#6363DB"/>
</g>
</g>
</g>
<g id="Clip path group_10">
<mask id="mask9_1_31" style="mask-type:luminance" maskUnits="userSpaceOnUse" x="8" y="69" width="26" height="29">
<g id="SVGID_00000021084602958394925580000004869667285862145175__2">
<path id="Vector_21" d="M32.1538 93.803C30.3952 97.1794 26.2984 98.5292 23.0584 96.664C22.9627 96.609 22.8683 96.552 22.775 96.4927C20.8343 95.2621 19.4684 93.2616 18.3772 91.1952C17.2861 89.1288 16.4093 86.9358 15.1488 84.9752C13.9443 83.1013 12.4125 81.476 11.1429 79.649C9.87317 77.8217 8.84593 75.6916 8.87713 73.4417C8.89652 72.0417 9.39716 70.5682 10.5062 69.7655C11.9035 68.754 13.8825 69.0848 15.3249 70.0258C16.7673 70.9668 17.8226 72.4069 18.956 73.725C20.768 75.8329 22.85 77.6919 25.1304 79.2383C27.151 80.6085 29.3447 81.7493 31.1027 83.4635C32.8607 85.178 34.1571 87.6619 33.7257 90.1208C33.5873 90.9076 32.8838 92.4011 32.1538 93.803Z" fill="white"/>
</g>
</mask>
<g mask="url(#mask9_1_31)">
<g id="Group_21">
<g id="Group_22">
<path id="Vector_22" d="M9.31336 68.8752C11.1091 70.5539 12.5586 72.5625 13.9421 74.6048C15.3208 76.6397 16.6903 78.673 18.1941 80.6128C21.2239 84.5213 24.6165 88.1187 28.2224 91.4592C30.2577 93.3448 32.3625 95.1488 34.5153 96.889C34.8033 97.1219 35.2127 96.7041 34.9215 96.4688C31.1028 93.3814 27.4326 90.0896 24.0372 86.5094C22.3429 84.723 20.7175 82.866 19.1812 80.9324C17.6366 78.9886 16.2209 76.9531 14.8322 74.8886C13.298 72.6078 11.7222 70.3269 9.71964 68.4549C9.44599 68.1987 9.0384 68.6179 9.31336 68.8752Z" fill="white"/>
</g>
</g>
</g>
</g>
<g id="Clip path group_11">
<mask id="mask10_1_31" style="mask-type:luminance" maskUnits="userSpaceOnUse" x="8" y="69" width="26" height="29">
<g id="SVGID_00000021084602958394925580000004869667285862145175__3">
<path id="Vector_23" d="M32.1538 93.803C30.3952 97.1794 26.2984 98.5292 23.0584 96.664C22.9627 96.609 22.8683 96.552 22.775 96.4927C20.8343 95.2621 19.4684 93.2616 18.3772 91.1952C17.2861 89.1288 16.4093 86.9358 15.1488 84.9752C13.9443 83.1013 12.4125 81.476 11.1429 79.649C9.87317 77.8217 8.84593 75.6916 8.87713 73.4417C8.89652 72.0417 9.39716 70.5682 10.5062 69.7655C11.9035 68.754 13.8825 69.0848 15.3249 70.0258C16.7673 70.9668 17.8226 72.4069 18.956 73.725C20.768 75.8329 22.85 77.6919 25.1304 79.2383C27.151 80.6085 29.3447 81.7493 31.1027 83.4635C32.8607 85.178 34.1571 87.6619 33.7257 90.1208C33.5873 90.9076 32.8838 92.4011 32.1538 93.803Z" fill="white"/>
</g>
</mask>
<g mask="url(#mask10_1_31)">
<g id="Group_23">
<g id="Group_24">
<path id="Vector_24" d="M13.7303 85.1494C16.7367 86.4738 20.0433 86.9173 23.277 86.4296C23.4592 86.4022 23.3819 86.1156 23.2008 86.143C20.0522 86.6177 16.8028 86.1821 13.8755 84.8927C13.7069 84.8187 13.5604 85.0746 13.7303 85.1494Z" fill="white"/>
</g>
</g>
</g>
</g>
<g id="Clip path group_12">
<mask id="mask11_1_31" style="mask-type:luminance" maskUnits="userSpaceOnUse" x="8" y="69" width="26" height="29">
<g id="SVGID_00000021084602958394925580000004869667285862145175__4">
<path id="Vector_25" d="M32.1538 93.803C30.3952 97.1794 26.2984 98.5292 23.0584 96.664C22.9627 96.609 22.8683 96.552 22.775 96.4927C20.8343 95.2621 19.4684 93.2616 18.3772 91.1952C17.2861 89.1288 16.4093 86.9358 15.1488 84.9752C13.9443 83.1013 12.4125 81.476 11.1429 79.649C9.87317 77.8217 8.84593 75.6916 8.87713 73.4417C8.89652 72.0417 9.39716 70.5682 10.5062 69.7655C11.9035 68.754 13.8825 69.0848 15.3249 70.0258C16.7673 70.9668 17.8226 72.4069 18.956 73.725C20.768 75.8329 22.85 77.6919 25.1304 79.2383C27.151 80.6085 29.3447 81.7493 31.1027 83.4635C32.8607 85.178 34.1571 87.6619 33.7257 90.1208C33.5873 90.9076 32.8838 92.4011 32.1538 93.803Z" fill="white"/>
</g>
</mask>
<g mask="url(#mask11_1_31)">
<g id="Group_25">
<g id="Group_26">
<path id="Vector_26" d="M26.1653 88.8404C26.6059 84.1833 25.7419 79.4436 23.7032 75.2672C23.6199 75.0964 23.3719 75.2466 23.4552 75.4171C25.472 79.5482 26.3136 84.2351 25.878 88.8402C25.8599 89.0307 26.1474 89.0294 26.1653 88.8404Z" fill="white"/>
</g>
</g>
</g>
</g>
<g id="Clip path group_13">
<mask id="mask12_1_31" style="mask-type:luminance" maskUnits="userSpaceOnUse" x="8" y="69" width="26" height="29">
<g id="SVGID_00000021084602958394925580000004869667285862145175__5">
<path id="Vector_27" d="M32.1538 93.803C30.3952 97.1794 26.2984 98.5292 23.0584 96.664C22.9627 96.609 22.8683 96.552 22.775 96.4927C20.8343 95.2621 19.4684 93.2616 18.3772 91.1952C17.2861 89.1288 16.4093 86.9358 15.1488 84.9752C13.9443 83.1013 12.4125 81.476 11.1429 79.649C9.87317 77.8217 8.84593 75.6916 8.87713 73.4417C8.89652 72.0417 9.39716 70.5682 10.5062 69.7655C11.9035 68.754 13.8825 69.0848 15.3249 70.0258C16.7673 70.9668 17.8226 72.4069 18.956 73.725C20.768 75.8329 22.85 77.6919 25.1304 79.2383C27.151 80.6085 29.3447 81.7493 31.1027 83.4635C32.8607 85.178 34.1571 87.6619 33.7257 90.1208C33.5873 90.9076 32.8838 92.4011 32.1538 93.803Z" fill="white"/>
</g>
</mask>
<g mask="url(#mask12_1_31)">
<g id="Group_27">
<g id="Group_28">
<path id="Vector_28" d="M17.794 79.3257C18.4624 75.1813 16.8986 71.1757 14.8926 67.6705C14.7986 67.506 14.5501 67.6554 14.6447 67.8205C16.6069 71.2492 18.172 75.1875 17.5172 79.2468C17.4868 79.4339 17.7636 79.5142 17.794 79.3257Z" fill="white"/>
</g>
</g>
</g>
</g>
<g id="Clip path group_14">
<mask id="mask13_1_31" style="mask-type:luminance" maskUnits="userSpaceOnUse" x="8" y="69" width="26" height="29">
<g id="SVGID_00000021084602958394925580000004869667285862145175__6">
<path id="Vector_29" d="M32.1538 93.803C30.3952 97.1794 26.2984 98.5292 23.0584 96.664C22.9627 96.609 22.8683 96.552 22.775 96.4927C20.8343 95.2621 19.4684 93.2616 18.3772 91.1952C17.2861 89.1288 16.4093 86.9358 15.1488 84.9752C13.9443 83.1013 12.4125 81.476 11.1429 79.649C9.87317 77.8217 8.84593 75.6916 8.87713 73.4417C8.89652 72.0417 9.39716 70.5682 10.5062 69.7655C11.9035 68.754 13.8825 69.0848 15.3249 70.0258C16.7673 70.9668 17.8226 72.4069 18.956 73.725C20.768 75.8329 22.85 77.6919 25.1304 79.2383C27.151 80.6085 29.3447 81.7493 31.1027 83.4635C32.8607 85.178 34.1571 87.6619 33.7257 90.1208C33.5873 90.9076 32.8838 92.4011 32.1538 93.803Z" fill="white"/>
</g>
</mask>
<g mask="url(#mask13_1_31)">
<g id="Group_29">
<g id="Group_30">
<path id="Vector_30" d="M14.824 75.4775C12.2579 75.6559 9.33325 75.8148 7.27748 73.9116C7.14013 73.7844 6.9362 73.9937 7.07434 74.1217C9.19459 76.0848 12.1699 75.9593 14.824 75.7749C15.0075 75.7619 15.0088 75.4645 14.824 75.4775Z" fill="white"/>
</g>
</g>
</g>
</g>
</g>
<g id="Group_31">
<path id="Vector_31" d="M69.8043 87.039C71.3039 84.7165 73.2774 82.7227 75.5578 81.227C77.4602 79.9794 79.6486 79.004 80.9429 77.0973C81.481 76.3048 81.8252 75.212 81.3348 74.387C80.9932 73.8125 80.3186 73.5227 79.6675 73.4885C79.0161 73.4546 78.3747 73.6379 77.7467 73.8196C78.2762 73.0431 78.7569 72.2309 79.1841 71.3896C79.6334 70.5055 80.0287 69.5729 80.1521 68.5823C80.2753 67.5917 80.1 66.5279 79.5036 65.7422C78.9073 64.9565 77.845 64.5195 76.9302 64.8397C76.0437 65.1498 75.4891 66.042 75.0419 66.8922C73.6228 69.5887 72.5654 72.4887 71.9099 75.4831C72.0389 74.4122 72.1036 73.311 71.8438 72.2656C71.5841 71.2205 70.9545 70.2279 70.0072 69.7752C69.759 69.6564 69.4866 69.5759 69.214 69.5979C68.6756 69.6415 68.2413 70.0691 67.9249 70.5218C67.3724 71.3126 67.0348 72.2425 66.7826 73.1827C65.7203 77.145 66.0928 81.3485 66.4948 85.4395L66.4498 92.1605L69.8043 87.039Z" fill="#6363DB"/>
</g>
<g id="Group_32">
<path id="Vector_32" d="M64.2887 98.3867H34.0275C30.4813 98.3867 27.6064 95.4132 27.6064 91.7454V16.031C27.6064 12.3632 30.4813 9.38965 34.0275 9.38965H64.2884C67.8346 9.38965 70.7095 12.3632 70.7095 16.031V91.7454C70.7095 95.4132 67.8349 98.3867 64.2887 98.3867Z" fill="#0C1A1E"/>
<path id="Vector_33" d="M68.0045 98.3867H36.553C33.3355 98.3867 30.7272 95.6889 30.7272 92.3611V15.4153C30.7272 12.0874 33.3355 9.38965 36.553 9.38965H68.0048C71.2222 9.38965 73.8305 12.0874 73.8305 15.4153V92.3613C73.8303 95.6889 71.222 98.3867 68.0045 98.3867Z" fill="#1A2E35"/>
<path id="Vector_34" d="M66.2257 93.0627H38.5191C35.5498 93.0627 33.1428 90.5732 33.1428 87.5021V16.8742C33.1428 13.8031 35.5498 11.3135 38.5191 11.3135H66.2257C69.195 11.3135 71.602 13.8031 71.602 16.8742V87.5023C71.602 90.5732 69.195 93.0627 66.2257 93.0627Z" fill="white"/>
<path id="Vector_35" d="M68.1196 70.3522H36.3892C35.2794 70.3522 34.3795 69.4217 34.3795 68.2736V26.019C34.3795 24.8711 35.2791 23.9404 36.3892 23.9404H68.1198C69.2296 23.9404 70.1295 24.8709 70.1295 26.019V68.2736C70.1292 69.4214 69.2296 70.3522 68.1196 70.3522Z" fill="#E6E6E6"/>
<path id="Vector_36" d="M68.9189 76.4511H36.3236C35.5731 76.4511 34.9645 75.8219 34.9645 75.0454V73.7533C34.9645 72.9772 35.5729 72.3477 36.3236 72.3477H68.9189C69.6694 72.3477 70.278 72.9769 70.278 73.7533V75.0454C70.2778 75.8219 69.6694 76.4511 68.9189 76.4511Z" fill="#5660DA"/>
<path id="Vector_37" d="M68.9189 88.2071H36.3236C35.5731 88.2071 34.9645 87.5778 34.9645 86.8014V79.8534C34.9645 79.0773 35.5729 78.4478 36.3236 78.4478H68.9189C69.6694 78.4478 70.278 79.077 70.278 79.8534V86.8014C70.2778 87.5778 69.6694 88.2071 68.9189 88.2071Z" fill="#E6E6E6"/>
<path id="Vector_38" d="M70.1292 31.1478V26.019C70.1292 24.8711 69.2296 23.9404 68.1196 23.9404H36.3892C35.2794 23.9404 34.3795 24.8709 34.3795 26.019V31.1478H70.1292Z" fill="#5660DA"/>
<g id="Group_33">
<path id="Vector_39" d="M40.6294 32.9736H36.2248V37.5293H40.6294V32.9736Z" fill="#BFBFC1"/>
<path id="Vector_40" d="M47.543 32.9736H43.1384V37.5293H47.543V32.9736Z" fill="#BFBFC1"/>
<path id="Vector_41" d="M54.4565 32.9736H50.0519V37.5293H54.4565V32.9736Z" fill="#BFBFC1"/>
<path id="Vector_42" d="M61.3703 32.9736H56.9658V37.5293H61.3703V32.9736Z" fill="#BFBFC1"/>
<path id="Vector_43" d="M68.2838 32.9736H63.8793V37.5293H68.2838V32.9736Z" fill="#BFBFC1"/>
<path id="Vector_44" d="M40.6294 39.8629H36.2248V44.4185H40.6294V39.8629Z" fill="#BFBFC1"/>
<path id="Vector_45" d="M47.543 39.8628H43.1384V44.4185H47.543V39.8628Z" fill="#BFBFC1"/>
<path id="Vector_46" d="M54.4565 39.8628H50.0519V44.4185H54.4565V39.8628Z" fill="#BFBFC1"/>
<path id="Vector_47" d="M61.3703 39.8628H56.9658V44.4185H61.3703V39.8628Z" fill="#404156"/>
<path id="Vector_48" d="M68.2838 39.8628H63.8793V44.4185H68.2838V39.8628Z" fill="#BFBFC1"/>
<path id="Vector_49" d="M40.6294 46.7525H36.2248V51.3082H40.6294V46.7525Z" fill="#BFBFC1"/>
<path id="Vector_50" d="M47.543 46.7524H43.1384V51.3081H47.543V46.7524Z" fill="#BFBFC1"/>
<path id="Vector_51" d="M54.4565 46.7524H50.0519V51.3081H54.4565V46.7524Z" fill="#BFBFC1"/>
<path id="Vector_52" d="M61.3703 46.7524H56.9658V51.3081H61.3703V46.7524Z" fill="#BFBFC1"/>
<path id="Vector_53" d="M68.2838 46.7524H63.8793V51.3081H68.2838V46.7524Z" fill="#BFBFC1"/>
<path id="Vector_54" d="M40.6294 53.6411H36.2248V58.1968H40.6294V53.6411Z" fill="#BFBFC1"/>
<path id="Vector_55" d="M47.543 53.6411H43.1384V58.1968H47.543V53.6411Z" fill="#BFBFC1"/>
<path id="Vector_56" d="M54.4565 53.6411H50.0519V58.1968H54.4565V53.6411Z" fill="#BFBFC1"/>
<path id="Vector_57" d="M61.3703 53.6411H56.9658V58.1968H61.3703V53.6411Z" fill="#BFBFC1"/>
<path id="Vector_58" d="M68.2838 53.6411H63.8793V58.1968H68.2838V53.6411Z" fill="#BFBFC1"/>
</g>
<g id="Group_34">
<path id="Vector_59" d="M64.5554 20.5816C64.5554 21.2708 65.0954 21.8293 65.7617 21.8293C66.428 21.8293 66.9679 21.2708 66.9679 20.5816C66.9679 19.8925 66.428 19.334 65.7617 19.334C65.0954 19.334 64.5554 19.8925 64.5554 20.5816Z" fill="#BFBFC1"/>
<path id="Vector_60" d="M60.1641 20.5816C60.1641 21.2708 60.7041 21.8293 61.3704 21.8293C62.0366 21.8293 62.5766 21.2708 62.5766 20.5816C62.5766 19.8925 62.0366 19.334 61.3704 19.334C60.7041 19.334 60.1641 19.8925 60.1641 20.5816Z" fill="#BFBFC1"/>
<path id="Vector_61" d="M55.7725 20.5816C55.7725 21.2708 56.3125 21.8293 56.9788 21.8293C57.6451 21.8293 58.185 21.2708 58.185 20.5816C58.185 19.8925 57.6451 19.334 56.9788 19.334C56.3125 19.334 55.7725 19.8925 55.7725 20.5816Z" fill="#BFBFC1"/>
</g>
<path id="Vector_62" d="M37.4874 26.5464V29.097L35.7611 27.8217L37.4874 26.5464Z" fill="white"/>
<path id="Vector_63" d="M66.5577 26.5464V29.097L68.284 27.8217L66.5577 26.5464Z" fill="white"/>
<g id="Group_35" opacity="0.5">
<path id="Vector_64" d="M71.6017 45.7559C61.8271 62.5388 50.31 78.1286 38.0438 93.0387C38.2006 93.0528 38.3586 93.0633 38.5188 93.0633H54.8226C60.1645 85.1635 67.1368 76.9186 71.6014 68.7569V45.7559H71.6017Z" fill="white"/>
<path id="Vector_65" d="M71.6017 22.1285V16.8742C71.6017 13.8033 69.1947 11.3135 66.2255 11.3135H60.7541C52.3402 25.6806 42.6466 38.8298 33.1425 52.7778V75.1496C46.5477 61.0202 71.2148 22.8158 71.6017 22.1285Z" fill="white"/>
</g>
<g id="Group_36">
<path id="Vector_66" d="M44.9742 14.269H59.7709C61.0736 14.269 62.1297 13.1768 62.1297 11.8293C62.1297 10.4819 61.0736 9.38965 59.7709 9.38965H44.9742C43.6715 9.38965 42.6155 10.4819 42.6155 11.8293C42.6152 13.1768 43.6715 14.269 44.9742 14.269Z" fill="#1A2E35"/>
<path id="Vector_67" d="M53.6459 13.1017H46.8909C46.4154 13.1017 46.0264 12.6994 46.0264 12.2076C46.0264 11.7158 46.4154 11.3135 46.8909 11.3135H53.6459C54.1213 11.3135 54.5103 11.7158 54.5103 12.2076C54.5103 12.6994 54.1213 13.1017 53.6459 13.1017Z" fill="#0C1A1E"/>
<path id="Vector_68" d="M57.3207 13.1017H56.6371C56.1617 13.1017 55.7727 12.6994 55.7727 12.2076C55.7727 11.7158 56.1617 11.3135 56.6371 11.3135H57.3207C57.7962 11.3135 58.1852 11.7158 58.1852 12.2076C58.1852 12.6994 57.7962 13.1017 57.3207 13.1017Z" fill="#0C1A1E"/>
</g>
<path id="Vector_69" d="M29.4452 35.5176V22.3345C28.1351 22.3345 27.073 23.433 27.073 24.7883V33.0641C27.073 34.4191 28.1351 35.5176 29.4452 35.5176Z" fill="#193B44"/>
<path id="Vector_70" d="M29.0557 42.9892C29.2709 42.9892 29.4452 42.8089 29.4452 42.5863V37.4464C29.4452 37.2238 29.2709 37.0435 29.0557 37.0435C27.9605 37.0435 27.073 37.9618 27.073 39.0942V40.9386C27.073 42.071 27.9605 42.9892 29.0557 42.9892Z" fill="#193B44"/>
</g>
<path id="Vector_71" d="M107.042 98.3864H12.687C12.687 97.0504 13.7341 95.9673 15.0258 95.9673H104.703C105.995 95.9673 107.042 97.0504 107.042 98.3864Z" fill="#0C1A1E"/>
<g id="Group_37">
<g id="Clip path group_15">
<mask id="mask14_1_31" style="mask-type:luminance" maskUnits="userSpaceOnUse" x="8" y="87" width="9" height="7">
<g id="SVGID_00000179645661997152822370000015787985842939941544_">
<path id="Vector_72" d="M8.14801 87.5578C8.14801 87.5578 16.6641 87.8956 16.7066 93.6704C16.7066 93.6702 11.5235 95.2727 8.14801 87.5578Z" fill="white"/>
</g>
</mask>
<g mask="url(#mask14_1_31)">
<path id="Vector_73" d="M8.14801 87.5578C8.14801 87.5578 16.6641 87.8956 16.7066 93.6704C16.7066 93.6704 11.5235 95.2727 8.14801 87.5578Z" fill="#5660DA"/>
</g>
</g>
<g id="Clip path group_16">
<mask id="mask15_1_31" style="mask-type:luminance" maskUnits="userSpaceOnUse" x="8" y="87" width="9" height="7">
<g id="SVGID_00000179645661997152822370000015787985842939941544__2">
<path id="Vector_74" d="M8.14801 87.5578C8.14801 87.5578 16.6641 87.8956 16.7066 93.6704C16.7066 93.6702 11.5235 95.2727 8.14801 87.5578Z" fill="white"/>
</g>
</mask>
<g mask="url(#mask15_1_31)">
<g id="Group_38">
<g id="Group_39">
<path id="Vector_75" d="M7.91566 87.5277C10.5706 89.2417 13.2177 90.999 15.7167 92.9496C16.4001 93.4829 17.0834 94.0313 17.6899 94.6581C17.7869 94.7585 17.9374 94.6028 17.8404 94.5025C16.6669 93.2899 15.2554 92.2998 13.8992 91.3227C12.4146 90.2532 10.9014 89.226 9.37564 88.2202C8.92611 87.9238 8.47528 87.6294 8.02286 87.3377C7.90648 87.2626 7.79954 87.4529 7.91566 87.5277Z" fill="white"/>
</g>
</g>
</g>
</g>
</g>
</g>
<path id="Vector_76" d="M6.25574 1.65088L10.8383 6.98194L4.18791 4.42404L6.25574 1.65088Z" fill="#C1DEFD"/>
<path id="Vector_77" d="M11.6087 0L12.108 4.36619L9.61794 0.647947L11.6087 0Z" fill="#C1DEFD"/>
<path id="Vector_78" d="M5.40866 8.31982L9.61797 8.92982L5.50853 10.4757L5.40866 8.31982Z" fill="#C1DEFD"/>
<path id="Vector_79" d="M21.7195 33.9501C21.7195 34.6693 22.2831 35.2522 22.9785 35.2522C23.6739 35.2522 24.2374 34.6693 24.2374 33.9501C24.2374 33.2308 23.6739 32.6479 22.9785 32.6479C22.2831 32.6479 21.7195 33.2308 21.7195 33.9501Z" fill="#C1DEFD"/>
<path id="Vector_80" d="M66.9679 6.74289C68.7378 6.74289 70.1726 5.25891 70.1726 3.42833C70.1726 1.59775 68.7378 0.11377 66.9679 0.11377C65.1981 0.11377 63.7633 1.59775 63.7633 3.42833C63.7633 5.25891 65.1981 6.74289 66.9679 6.74289Z" fill="#C1DEFD"/>
<g id="Group_40">
<g id="Group_41">
<path id="Vector_81" d="M115.988 21.829H79.2081C77.579 21.829 76.2582 20.4632 76.2582 18.778V3.12233C76.2582 1.4374 77.5788 0.0712891 79.2081 0.0712891H115.987C117.616 0.0712891 118.937 1.4374 118.937 3.12233V18.778C118.937 20.4629 117.617 21.829 115.988 21.829Z" fill="#5660DA"/>
<path id="Vector_82" d="M93.674 5.50659H80.0377C79.4828 5.50659 79.0327 5.04137 79.0327 4.46716C79.0327 3.89323 79.4825 3.42773 80.0377 3.42773H93.674C94.2289 3.42773 94.6789 3.89323 94.6789 4.46716C94.6789 5.0411 94.2291 5.50659 93.674 5.50659Z" fill="#E6E6E6"/>
<path id="Vector_83" d="M89.5922 8.62768H80.0378C79.4829 8.62768 79.0329 8.16246 79.0329 7.58825C79.0329 7.01432 79.4826 6.54883 80.0378 6.54883H89.5922C90.1471 6.54883 90.5971 7.01405 90.5971 7.58825C90.5971 8.16219 90.1471 8.62768 89.5922 8.62768Z" fill="#E6E6E6"/>
</g>
<g id="Group_42">
<path id="Vector_84" d="M18.5642 20.5799C23.1028 20.5799 26.7821 16.7745 26.7821 12.0802C26.7821 7.38589 23.1028 3.58041 18.5642 3.58041C14.0256 3.58041 10.3464 7.38589 10.3464 12.0802C10.3464 16.7745 14.0256 20.5799 18.5642 20.5799Z" fill="#6363DB"/>
<path id="Vector_85" d="M18.5642 18.9216C22.2177 18.9216 25.1794 15.8582 25.1794 12.0794C25.1794 8.30052 22.2177 5.23715 18.5642 5.23715C14.9107 5.23715 11.9489 8.30052 11.9489 12.0794C11.9489 15.8582 14.9107 18.9216 18.5642 18.9216Z" fill="white"/>
<g id="Group_43">
<path id="Vector_86" d="M18.5642 13.605C18.4239 13.605 18.3102 13.4873 18.3102 13.3423V7.06724C18.3102 6.9222 18.4239 6.80453 18.5642 6.80453C18.7044 6.80453 18.8182 6.9222 18.8182 7.06724V13.3423C18.8182 13.4873 18.7044 13.605 18.5642 13.605Z" fill="#6363DB"/>
<g id="Group_44">
<path id="Vector_87" d="M18.3811 13.4047V13.2813C18.3811 13.1704 18.4681 13.0804 18.5753 13.0804H22.0353C22.1425 13.0804 22.2295 13.1704 22.2295 13.2813V13.4047C22.2295 13.5155 22.1425 13.6055 22.0353 13.6055H18.5753C18.4681 13.6055 18.3811 13.5155 18.3811 13.4047Z" fill="#6363DB"/>
</g>
</g>
</g>
<g id="Group_45">
<path id="Vector_88" d="M88.3812 34.213C88.3812 34.213 91.416 35.1754 92.7294 34.3157C94.0429 33.4563 92.9572 31.9869 92.3944 32.0145C91.8314 32.0425 88.6436 32.6408 88.3812 34.213Z" fill="#313131"/>
<path id="Vector_89" d="M89.2773 33.5027L87.3201 39.8309L88.6891 43.4973C88.6891 43.4973 89.8807 44.3993 91.7913 38.885C92.8423 35.8518 93.9343 32.165 93.9343 32.165L89.2773 33.5027Z" fill="#FD9697"/>
<path id="Vector_90" d="M92.7282 36.0612C92.7628 35.9531 92.7358 36.0154 92.8325 35.7359C93.4585 33.7712 93.9345 32.1641 93.9345 32.1641L89.2775 33.5017L88.6544 35.5169C89.9805 35.1723 91.4255 35.3002 92.7282 36.0612Z" fill="black"/>
<path id="Vector_91" d="M89.1681 40.12C89.0735 40.072 84.5596 35.8766 81.903 33.9609L81.2213 35.3981C81.2213 35.3981 85.6945 45.5223 89.2213 43.4662L89.1681 40.12Z" fill="#FD9697"/>
<path id="Vector_92" d="M82.4765 34.3862C82.4765 34.3862 81.7575 33.5631 80.9924 33.2264C80.2273 32.89 80.6695 31.7527 80.2309 31.8549C79.7927 31.9568 79.4047 32.4497 79.6299 33.439C79.8551 34.4285 79.5916 35.1087 78.1429 34.7658C76.6942 34.4228 76.1713 33.8871 75.8505 34.4841C75.5296 35.0808 76.4879 36.0679 79.248 35.8383C79.248 35.8383 77.7327 36.2317 76.4077 35.6764C76.4077 35.6764 75.7422 35.3169 75.5996 35.9155C75.457 36.5141 76.8499 37.5753 79.2265 36.7766C79.2265 36.7766 78.9662 36.9691 78.4894 37.1157C77.9044 37.2955 77.2814 37.2827 76.6934 37.1136C76.3217 37.0068 75.8507 36.914 75.7312 37.0843C75.5262 37.3765 76.9015 38.6914 79.734 37.9819C82.5664 37.2724 82.449 35.5886 82.449 35.5886L82.4765 34.3862Z" fill="#FD9697"/>
<path id="Vector_93" d="M102.478 5.22893C102.478 5.22893 102.528 2.88059 105.158 3.5467C108.239 4.32695 110.403 9.45902 105.988 9.55038C101.572 9.64174 102.478 5.22893 102.478 5.22893Z" fill="black"/>
<path id="Vector_94" d="M100.091 3.70644C100.091 3.70644 104.324 3.54757 105.962 7.51984C107.6 11.4921 111.52 12.843 110.796 16.3642C110.073 19.8853 107.526 20.3012 107.526 20.3012H106.235L106.381 18.8386C106.381 18.8386 105.998 20.2855 105.06 20.4181C104.122 20.5506 96.5886 20.2733 96.5886 20.2733L96.804 19.4692C96.804 19.4692 96.2806 20.4238 94.6793 20.4178C93.078 20.4118 90.3707 16.898 91.4967 14.3713C92.6228 11.8446 94.9535 10.868 95.3031 8.68289C95.6523 6.49776 96.8111 3.8851 100.091 3.70644Z" fill="black"/>
<g id="Group_46">
<path id="Vector_95" d="M105.899 92.4253L106.171 98.0502C106.171 98.0502 101.979 99.1203 100.184 100.753C99.7242 101.172 99.9966 101.977 100.6 101.985C103.564 102.022 111.028 102.052 111.141 101.41C111.282 100.609 110.832 93.5181 110.832 93.5181L105.899 92.4253Z" fill="black"/>
<path id="Vector_96" d="M106.103 96.6364L105.899 92.4253L110.832 93.5181C110.832 93.5181 110.888 94.3892 110.953 95.5541C109.473 96.9091 107.705 97.3185 106.103 96.6364Z" fill="#181818"/>
<path id="Vector_97" d="M111.168 100.725C111.169 101.054 111.161 101.297 111.141 101.411C111.028 102.052 103.564 102.022 100.6 101.985C100.206 101.98 99.9546 101.635 99.9546 101.279C101.816 101.625 107.72 102.046 111.168 100.725Z" fill="white"/>
<path id="Vector_98" d="M106.544 98.9603C106.469 99.2022 106.144 98.9199 105.661 98.7494C105.178 98.5789 104.719 98.5846 104.794 98.3428C104.868 98.1009 105.32 98.0432 105.804 98.2137C106.287 98.3842 106.618 98.7185 106.544 98.9603Z" fill="white"/>
<path id="Vector_99" d="M105.266 99.35C105.192 99.5918 104.867 99.3096 104.383 99.1391C103.9 98.9685 103.442 98.9742 103.516 98.7324C103.59 98.4906 104.043 98.4328 104.526 98.6033C105.009 98.7736 105.341 99.1082 105.266 99.35Z" fill="white"/>
<path id="Vector_100" d="M103.984 99.9315C103.909 100.173 103.584 99.8911 103.101 99.7206C102.617 99.5501 102.159 99.5558 102.233 99.3139C102.308 99.0721 102.76 99.0144 103.243 99.1849C103.727 99.3554 104.058 99.6897 103.984 99.9315Z" fill="white"/>
</g>
<g id="Group_47">
<path id="Vector_101" d="M93.2477 92.4253L93.5196 98.0502C93.5196 98.0502 89.3275 99.1203 87.5328 100.753C87.0728 101.172 87.3452 101.977 87.9488 101.985C90.9128 102.022 98.3771 102.052 98.49 101.41C98.6311 100.609 98.181 93.5181 98.181 93.5181L93.2477 92.4253Z" fill="black"/>
<path id="Vector_102" d="M93.4511 96.6364L93.2477 92.4253L98.181 93.5181C98.181 93.5181 98.2363 94.3892 98.3019 95.5541C96.8214 96.9091 95.054 97.3185 93.4511 96.6364Z" fill="#181818"/>
<path id="Vector_103" d="M98.5169 100.725C98.5177 101.054 98.5101 101.297 98.4899 101.411C98.3769 102.052 90.9127 102.022 87.9487 101.985C87.5544 101.98 87.3033 101.635 87.3033 101.279C89.1649 101.625 95.0682 102.046 98.5169 100.725Z" fill="white"/>
<path id="Vector_104" d="M93.8925 98.9603C93.818 99.2022 93.493 98.9199 93.0097 98.7494C92.5263 98.5789 92.0679 98.5846 92.1423 98.3428C92.2168 98.1009 92.6689 98.0432 93.1523 98.2137C93.6359 98.3842 93.9672 98.7185 93.8925 98.9603Z" fill="white"/>
<path id="Vector_105" d="M92.6146 99.35C92.5401 99.5918 92.2151 99.3096 91.7318 99.1391C91.2484 98.9685 90.79 98.9742 90.8644 98.7324C90.9389 98.4906 91.391 98.4328 91.8744 98.6033C92.3577 98.7736 92.689 99.1082 92.6146 99.35Z" fill="white"/>
<path id="Vector_106" d="M91.3324 99.9315C91.258 100.173 90.9329 99.8911 90.4496 99.7206C89.9663 99.5501 89.5078 99.5558 89.5823 99.3139C89.6567 99.0721 90.1089 99.0144 90.5922 99.1849C91.0755 99.3554 91.4068 99.6897 91.3324 99.9315Z" fill="white"/>
</g>
<g id="Group_48">
<g id="Clip path group_17">
<mask id="mask16_1_31" style="mask-type:luminance" maskUnits="userSpaceOnUse" x="90" y="45" width="23" height="49">
<g id="SVGID_00000059282089565210336970000015905566075191405977_">
<path id="Vector_107" d="M109.283 45.2405L99.1702 45.0142V45.1993L91.9767 45.0142C88.1543 63.2752 93.3208 93.698 93.3208 93.698H98.3715C97.8104 71.2723 99.6344 55.22 99.6344 55.22L99.8638 55.2151L100.756 55.1964C100.756 55.1964 101.564 65.9513 105.67 93.698L111.168 93.6479C111.168 93.6479 114.366 50.7039 109.283 45.2405Z" fill="white"/>
</g>
</mask>
<g mask="url(#mask16_1_31)">
<path id="Vector_108" d="M109.283 45.2405L99.1702 45.0142V45.1993L91.9767 45.0142C88.1543 63.2752 93.3208 93.698 93.3208 93.698H98.3715C97.8104 71.2723 99.6344 55.22 99.6344 55.22L99.8638 55.2151L100.756 55.1964C100.756 55.1964 101.564 65.9513 105.67 93.698L111.168 93.6479C111.168 93.6479 114.366 50.7039 109.283 45.2405Z" fill="#404156"/>
</g>
</g>
<g id="Clip path group_18">
<mask id="mask17_1_31" style="mask-type:luminance" maskUnits="userSpaceOnUse" x="90" y="45" width="23" height="49">
<g id="SVGID_00000059282089565210336970000015905566075191405977__2">
<path id="Vector_109" d="M109.283 45.2405L99.1702 45.0142V45.1993L91.9767 45.0142C88.1543 63.2752 93.3208 93.698 93.3208 93.698H98.3715C97.8104 71.2723 99.6344 55.22 99.6344 55.22L99.8638 55.2151L100.756 55.1964C100.756 55.1964 101.564 65.9513 105.67 93.698L111.168 93.6479C111.168 93.6479 114.366 50.7039 109.283 45.2405Z" fill="white"/>
</g>
</mask>
<g mask="url(#mask17_1_31)">
<path id="Vector_110" d="M108.446 45.0142C108.446 45.0142 109.887 84.4115 109.39 94.0825" stroke="#8A8B96" stroke-width="1.0823" stroke-miterlimit="10"/>
</g>
</g>
<g id="Clip path group_19">
<mask id="mask18_1_31" style="mask-type:luminance" maskUnits="userSpaceOnUse" x="90" y="45" width="23" height="49">
<g id="SVGID_00000059282089565210336970000015905566075191405977__3">
<path id="Vector_111" d="M109.283 45.2405L99.1702 45.0142V45.1993L91.9767 45.0142C88.1543 63.2752 93.3208 93.698 93.3208 93.698H98.3715C97.8104 71.2723 99.6344 55.22 99.6344 55.22L99.8638 55.2151L100.756 55.1964C100.756 55.1964 101.564 65.9513 105.67 93.698L111.168 93.6479C111.168 93.6479 114.366 50.7039 109.283 45.2405Z" fill="white"/>
</g>
</mask>
<g mask="url(#mask18_1_31)">
<path id="Vector_112" d="M93.903 44.7271C93.903 44.7271 92.1552 72.7349 93.903 85.9707C95.6508 99.2064 95.6508 99.2064 95.6508 99.2064" stroke="#8A8B96" stroke-width="1.0823" stroke-miterlimit="10"/>
</g>
</g>
</g>
<path id="Vector_113" d="M107.153 47.4072C107.94 46.7281 108.667 46.0493 109.39 45.3701C109.354 45.3273 109.32 45.2796 109.284 45.2405L99.1703 45.0142V45.1993L91.9768 45.0142C91.916 45.3048 91.8576 45.5987 91.8012 45.8955C95.8145 49.8109 102.707 51.1431 107.153 47.4072Z" fill="#2B2C3F"/>
<path id="Vector_114" d="M104.828 12.2315C104.206 13.2487 104.118 14.8883 104.924 15.4154C105.73 15.9421 107.124 15.1567 107.746 14.1395C108.368 13.1223 108.218 11.8706 107.413 11.3436C106.607 10.8168 105.449 11.2143 104.828 12.2315Z" fill="#FD9697"/>
<path id="Vector_115" d="M96.9705 12.4798C97.6604 13.449 97.8604 15.0781 97.0926 15.6626C96.3249 16.2471 94.8801 15.5661 94.1902 14.5969C93.5003 13.6277 93.5635 12.3684 94.3312 11.7836C95.099 11.1991 96.2806 11.5106 96.9705 12.4798Z" fill="#FD9697"/>
<path id="Vector_116" d="M107.208 23.9463C102.388 22.3926 103.703 17.2456 103.703 17.2456L101.48 16.9653V16.9219L101.308 16.9436L101.136 16.9219V16.9653L98.9137 17.2456C98.9137 17.2456 100.228 22.3926 95.4085 23.9463C90.5887 25.5 89.4933 27.0537 89.1177 33.2043H113.498C113.123 27.0537 112.028 25.5 107.208 23.9463Z" fill="#FD9697"/>
<path id="Vector_117" d="M107.208 23.9468C106.961 23.8673 106.735 23.7763 106.52 23.6792C103.168 25.7258 98.6152 25.966 95.3149 23.9777C90.5764 25.5214 89.4912 27.0952 89.1179 33.2046H113.498C113.123 27.0542 112.028 25.5005 107.208 23.9468Z" fill="white"/>
<path id="Vector_118" d="M107.772 24.1357C103.871 27.5837 98.1006 28.5618 94.2056 24.3678C90.4023 25.8161 89.46 27.6051 89.1179 33.2048H113.498C113.138 27.3028 112.113 25.6339 107.772 24.1357Z" fill="#D8D8D8"/>
<path id="Vector_119" d="M113.499 33.2042C113.123 27.0538 112.028 25.5001 107.208 23.9461C106.832 23.8249 106.493 23.6818 106.189 23.521C104.696 25.6028 102.109 28.6962 100.489 28.6346C99.5707 28.7401 96.4766 24.969 95.7498 23.8255C95.6394 23.8675 95.5267 23.9081 95.4093 23.9461C90.5895 25.4998 88.7571 28.0629 88.3815 34.2132C88.3815 34.2132 88.9364 33.7472 90.2333 33.3942C91.3145 33.0998 92.5053 33.3123 92.5053 33.3123L91.6241 45.4902C91.6241 45.4902 95.0625 47.3416 100.414 47.3215C107.201 47.2961 109.736 45.4902 109.736 45.4902L109.135 33.3416L113.499 33.2042Z" fill="black"/>
<g id="Group_49">
<path id="Vector_120" d="M103.546 18.4658C103.577 17.7387 103.703 17.2456 103.703 17.2456L101.48 16.9653V16.9219L101.308 16.9436L101.136 16.9219V16.9653L98.9137 17.2456C98.9137 17.2456 99.1284 18.0863 99.066 19.1908C99.5541 20.2202 101.308 21.6478 103.546 18.4658Z" fill="black"/>
</g>
<path id="Vector_121" d="M95.8394 7.73662C95.8056 7.83937 94.7362 14.8499 97.2244 17.4477C99.7127 20.0455 104.016 18.5077 105.064 15.8455C105.969 13.5475 106.144 9.21768 104.384 6.57113C102.623 3.92512 97.5762 2.46846 95.8394 7.73662Z" fill="#FD9697"/>
<path id="Vector_122" opacity="0.3" d="M99.4934 9.55569C101.466 9.35181 103.576 9.71428 105.442 9.16502C105.226 8.22129 104.886 7.32691 104.383 6.57133C102.623 3.92505 97.5763 2.46839 95.8393 7.73682C95.8277 7.77153 95.6974 8.60139 95.6269 9.78314C96.6673 9.63376 98.6415 9.41959 98.6415 9.41959C98.6415 9.41959 99.0122 8.87954 99.2095 8.67567C99.3152 8.93593 99.3605 9.09697 99.4934 9.55569Z" fill="black"/>
<path id="Vector_123" opacity="0.3" d="M95.928 14.7299C96.1747 15.8007 96.5783 16.7737 97.2245 17.448C99.7125 20.0457 104.016 18.508 105.064 15.8457C105.309 15.2238 105.5 14.4528 105.613 13.6069C105.502 17.5084 98.4703 21.1058 95.928 14.7299Z" fill="black"/>
<g id="Group_50">
<g id="Group_51">
<path id="Vector_124" d="M98.9478 9.6449C99.0493 10.8028 99.1504 11.9604 99.2519 13.1183C99.2666 13.2861 99.2812 13.454 99.2959 13.6218C99.2983 13.6483 99.3135 13.6779 99.3415 13.6836C99.5858 13.7329 99.8304 13.7823 100.075 13.8316C100.153 13.8473 100.186 13.7237 100.108 13.708C99.8634 13.6587 99.6188 13.6093 99.3746 13.56C99.3898 13.5806 99.405 13.6012 99.4202 13.6218C99.3187 12.4639 99.2175 11.3063 99.1161 10.1483C99.1014 9.98053 99.0868 9.81272 99.0721 9.6449C99.0647 9.5633 98.9408 9.56276 98.9478 9.6449Z" fill="black"/>
</g>
</g>
<g id="Group_52">
<g id="Group_53">
<path id="Vector_125" d="M106.775 12.5954C106.615 12.6054 106.449 12.6604 106.309 12.7423C106.186 12.8144 106.079 12.9166 106.008 13.0435C105.919 13.2015 105.89 13.39 105.902 13.5711C105.913 13.7278 105.958 13.8972 106.079 14.0019C106.175 14.0848 106.298 14.1125 106.42 14.0913C106.541 14.0704 106.657 13.9986 106.736 13.9018C106.825 13.7934 106.891 13.6383 106.851 13.4949C106.804 13.3311 106.64 13.2531 106.487 13.2425C106.313 13.2306 106.131 13.3038 106.022 13.4455C105.972 13.5095 106.06 13.6009 106.109 13.5364C106.191 13.4312 106.312 13.3726 106.442 13.3699C106.542 13.368 106.666 13.3986 106.718 13.4968C106.769 13.5938 106.719 13.7172 106.659 13.7974C106.6 13.8782 106.513 13.9379 106.417 13.9612C106.332 13.9821 106.238 13.9699 106.166 13.911C106.071 13.833 106.036 13.6977 106.026 13.5776C106.004 13.2888 106.105 13.0199 106.349 12.8665C106.441 12.809 106.541 12.7702 106.645 12.7455C106.664 12.7409 106.683 12.7369 106.702 12.7333C106.711 12.7317 106.719 12.7304 106.728 12.729C106.733 12.7282 106.756 12.7252 106.735 12.7279C106.748 12.726 106.762 12.7244 106.775 12.7236C106.855 12.7187 106.855 12.5905 106.775 12.5954Z" fill="black"/>
</g>
</g>
<g id="Group_54">
<g id="Group_55">
<path id="Vector_126" d="M94.7039 13.0603C94.7141 13.0608 94.7244 13.0622 94.7346 13.0635C94.7524 13.0654 94.7325 13.063 94.739 13.0641C94.7453 13.0652 94.7516 13.066 94.7579 13.0671C94.7747 13.0698 94.7915 13.073 94.808 13.0765C94.8955 13.0955 94.982 13.1237 95.0622 13.1649C95.2963 13.2856 95.4418 13.5049 95.4546 13.7774C95.4654 14.0073 95.3943 14.3174 95.1259 14.3071C95.0344 14.3036 94.9406 14.2583 94.8714 14.1916C94.7964 14.1192 94.727 14.0032 94.7422 13.8926C94.759 13.7709 94.8871 13.7145 94.9928 13.7074C95.1377 13.6977 95.2787 13.7546 95.3699 13.8728C95.4198 13.9373 95.507 13.846 95.4578 13.782C95.2827 13.5553 94.8551 13.4794 94.6722 13.7399C94.4971 13.9896 94.7461 14.3166 94.9762 14.4047C95.0903 14.4484 95.2205 14.4462 95.3293 14.3882C95.4533 14.322 95.527 14.1875 95.5574 14.0512C95.6336 13.7082 95.5293 13.3428 95.2515 13.1329C95.0973 13.0166 94.895 12.9437 94.7039 12.9318C94.6242 12.9269 94.6245 13.0551 94.7039 13.0603Z" fill="black"/>
</g>
</g>
<g id="Group_56">
<path id="Vector_127" d="M96.265 14.2676C96.2572 14.69 96.6606 15.0402 97.1662 15.0503C97.6718 15.0603 98.0878 14.726 98.0956 14.3039C98.1035 13.8815 97.7001 13.5312 97.1945 13.5212C96.6889 13.5112 96.2729 13.8452 96.265 14.2676Z" fill="black"/>
</g>
<g id="Group_57">
<path id="Vector_128" d="M102.095 14.2676C102.087 14.69 102.491 15.0402 102.996 15.0503C103.502 15.0603 103.918 14.726 103.926 14.3039C103.934 13.8815 103.53 13.5313 103.025 13.5212C102.519 13.5109 102.103 13.8452 102.095 14.2676Z" fill="black"/>
</g>
<path id="Vector_129" d="M103.3 10.7234C103.26 10.9408 102.863 10.8324 102.366 10.7342C101.87 10.6361 101.462 10.5851 101.502 10.368C101.542 10.1505 101.977 10.054 102.474 10.1522C102.971 10.2503 103.34 10.506 103.3 10.7234Z" fill="black"/>
<path id="Vector_130" d="M98.4622 10.3229C98.5335 10.5316 98.1374 10.6449 97.6606 10.819C97.1838 10.993 96.8069 11.1617 96.7356 10.9532C96.6643 10.7444 96.9933 10.4343 97.4698 10.2602C97.9466 10.0862 98.3909 10.1141 98.4622 10.3229Z" fill="black"/>
<path id="Vector_131" d="M109.003 34.2644C109.003 34.2644 112.332 34.8161 114.584 31.7662C114.584 31.7662 111.195 31.3901 109.003 34.2644Z" fill="#313131"/>
<path id="Vector_132" d="M109.402 32.8581L110.339 39.4309L113.13 42.0988C113.13 42.0988 114.584 42.3656 113.951 36.5446C113.602 33.3426 113.013 29.5352 113.013 29.5352L109.402 32.8581Z" fill="#FD9697"/>
<path id="Vector_133" d="M113.589 33.5836C113.574 33.4706 113.577 33.5391 113.545 33.2439C113.27 31.1949 113.013 29.5352 113.013 29.5352L109.402 32.8579L109.7 34.9508C110.744 34.0374 112.096 33.4936 113.589 33.5836Z" fill="black"/>
<path id="Vector_134" d="M108.018 28.6373L109.003 34.2642C109.003 34.2642 111.84 32.445 114.584 31.7659C114.584 31.7659 112.473 23.7137 108.018 24.2229V28.6373Z" fill="black"/>
<path id="Vector_135" d="M98.0542 12.7786C98.0461 12.4839 98.201 12.2404 98.4002 12.2345C98.5994 12.2288 98.7674 12.4627 98.7753 12.7574C98.7834 13.0521 98.6282 13.2956 98.429 13.3016C98.2301 13.3072 98.0621 13.073 98.0542 12.7786Z" fill="black"/>
<path id="Vector_136" d="M101.628 12.6707C101.62 12.376 101.775 12.1325 101.974 12.1266C102.173 12.1209 102.341 12.3548 102.349 12.6495C102.357 12.9442 102.202 13.1877 102.003 13.1936C101.804 13.1993 101.636 12.9651 101.628 12.6707Z" fill="black"/>
<g id="Group_58">
<g id="Group_59">
<path id="Vector_137" d="M101.819 14.5905C101.299 15.6123 99.7634 15.8696 99.0214 14.9793C98.9317 14.8719 98.8363 14.7269 98.7918 14.6046C98.7661 14.5344 98.656 14.5648 98.6819 14.6361C98.8274 15.036 99.181 15.3608 99.5574 15.5158C100.243 15.7989 101.06 15.6056 101.586 15.0829C101.713 14.9576 101.835 14.8112 101.917 14.6502C101.952 14.5829 101.853 14.5233 101.819 14.5905Z" fill="black"/>
</g>
</g>
<path id="Vector_138" d="M95.5248 7.83492C95.5677 8.28224 95.7027 8.7697 95.9858 9.27396L98.737 8.89956C98.737 8.89956 98.6667 7.56869 99.2096 6.82016C99.2096 6.82016 99.1493 8.62926 99.8932 8.85808L103.894 8.68348L104.688 6.29014C104.688 6.29014 103.412 3.93015 100.658 3.72221C99.0914 3.60401 97.8306 4.19828 97.0345 4.73317C96.0254 5.41067 95.4058 6.59704 95.5248 7.83492Z" fill="black"/>
<path id="Vector_139" d="M95.9856 7.73529C95.9856 7.73529 95.7314 11.1686 96.1605 12.2972C96.5893 13.4258 96.08 13.5297 95.7317 12.66C95.3833 11.7902 95.0709 7.89497 95.5822 6.70264L95.9859 7.6591" fill="black"/>
<path id="Vector_140" d="M104.095 6.79982C104.095 6.79982 105.494 8.42972 105.266 11.7077C105.266 11.7077 105.21 11.9547 105.31 12.0805C105.377 12.1656 105.548 12.2694 105.732 11.9194C105.765 11.8576 105.799 11.7871 105.837 11.7077C106.4 10.5151 106.26 9.32275 105.961 8.58805C105.663 7.85335 104.43 6.09277 104.43 6.09277L104.095 6.79982Z" fill="black"/>
<path id="Vector_141" d="M97.1941 14.8673C98.197 14.8673 99.01 14.0264 99.01 12.9891C99.01 11.9518 98.197 11.1108 97.1941 11.1108C96.1912 11.1108 95.3781 11.9518 95.3781 12.9891C95.3781 14.0264 96.1912 14.8673 97.1941 14.8673Z" stroke="white" stroke-width="0.5412" stroke-miterlimit="10"/>
<path id="Vector_142" d="M100.657 12.66C100.657 13.6972 101.471 14.5382 102.473 14.5382C103.476 14.5382 104.289 13.6972 104.289 12.66C104.289 11.6227 103.476 10.7817 102.473 10.7817C101.471 10.7817 100.657 11.6227 100.657 12.66Z" stroke="white" stroke-width="0.5412" stroke-miterlimit="10"/>
<path id="Vector_143" d="M98.9911 12.7209C98.9911 12.7209 99.3607 11.8108 100.657 12.5696" stroke="white" stroke-width="0.5412" stroke-miterlimit="10"/>
<g id="Group_60">
<g id="Clip path group_20">
<mask id="mask19_1_31" style="mask-type:luminance" maskUnits="userSpaceOnUse" x="89" y="23" width="25" height="25">
<g id="SVGID_00000087383274869623094290000001457852882352444052_">
<path id="Vector_144" d="M113.499 33.2042C113.123 27.0538 112.028 25.5001 107.208 23.9461C106.832 23.8249 106.494 23.6818 106.189 23.521C104.697 25.6028 102.109 28.6962 100.49 28.6346C99.5709 28.7401 96.4768 24.969 95.75 23.8255C95.6396 23.8675 95.5269 23.9081 95.4095 23.9461C90.5897 25.4998 89.4943 27.0535 89.1187 33.2042L92.5058 33.3123L91.6246 45.4902C91.6246 45.4902 95.063 47.3416 100.415 47.3215C107.201 47.2961 109.736 45.4902 109.736 45.4902L109.135 33.3416L113.499 33.2042Z" fill="white"/>
</g>
</mask>
<g mask="url(#mask19_1_31)">
<g id="Group_61">
<path id="Vector_145" d="M96.2385 27.7112C96.6446 25.8665 95.5279 24.0307 93.7445 23.6106C91.961 23.1906 90.186 24.3455 89.7799 26.1902C89.3738 28.0349 90.4904 29.8708 92.2739 30.2908C94.0574 30.7108 95.8324 29.5559 96.2385 27.7112Z" fill="white"/>
<path id="Vector_146" d="M98.838 32.4874C99.5301 32.4874 100.091 31.907 100.091 31.1912C100.091 30.4753 99.5301 29.895 98.838 29.895C98.1459 29.895 97.5848 30.4753 97.5848 31.1912C97.5848 31.907 98.1459 32.4874 98.838 32.4874Z" fill="white"/>
<path id="Vector_147" d="M95.5319 42.3753C96.9233 42.3753 98.0513 41.2087 98.0513 39.7695C98.0513 38.3303 96.9233 37.1636 95.5319 37.1636C94.1404 37.1636 93.0124 38.3303 93.0124 39.7695C93.0124 41.2087 94.1404 42.3753 95.5319 42.3753Z" fill="white"/>
<path id="Vector_148" d="M104.415 35.2525C104.962 35.2525 105.405 34.7941 105.405 34.2286C105.405 33.663 104.962 33.2046 104.415 33.2046C103.869 33.2046 103.425 33.663 103.425 34.2286C103.425 34.7941 103.869 35.2525 104.415 35.2525Z" fill="white"/>
<path id="Vector_149" d="M110.161 29.4096C110.447 28.1616 109.7 26.9102 108.494 26.6145C107.287 26.3187 106.077 27.0906 105.791 28.3385C105.505 29.5865 106.252 30.8379 107.458 31.1337C108.665 31.4294 109.875 30.6575 110.161 29.4096Z" fill="white"/>
<path id="Vector_150" d="M106.381 46.6387C107.566 46.6387 108.527 45.6452 108.527 44.4197C108.527 43.1942 107.566 42.2007 106.381 42.2007C105.196 42.2007 104.236 43.1942 104.236 44.4197C104.236 45.6452 105.196 46.6387 106.381 46.6387Z" fill="white"/>
<path id="Vector_151" d="M98.8463 49.0305C100.017 49.0305 100.967 48.0487 100.967 46.8375C100.967 45.6264 100.017 44.6445 98.8463 44.6445C97.6753 44.6445 96.726 45.6264 96.726 46.8375C96.726 48.0487 97.6753 49.0305 98.8463 49.0305Z" fill="white"/>
</g>
</g>
</g>
</g>
<path id="Vector_152" d="M112.121 38.8477C112.016 38.8477 106.177 37.1378 102.976 36.6284V38.229C102.976 38.229 111.304 45.28 113.595 41.8272L112.121 38.8477Z" fill="#FD9697"/>
<g id="Group_62">
<path id="Vector_153" d="M101.319 40.8716L98.499 41.4116C98.2007 41.4688 97.914 41.2649 97.8587 40.9561L96.6134 33.9976C96.5581 33.6891 96.7552 33.3925 97.0537 33.3353L99.8741 32.7953C100.172 32.7381 100.459 32.9419 100.514 33.2507L101.76 40.2092C101.815 40.518 101.618 40.8146 101.319 40.8716Z" fill="#294249"/>
<path id="Vector_154" d="M101.003 40.9312L98.183 41.4712C97.8844 41.5284 97.5979 41.3246 97.5426 41.0158L96.2973 34.0573C96.242 33.7485 96.4391 33.4521 96.7377 33.3949L99.558 32.8549C99.8563 32.7977 100.143 33.0016 100.198 33.3104L101.444 40.2689C101.499 40.5774 101.302 40.874 101.003 40.9312Z" fill="#1A2E35"/>
</g>
<path id="Vector_155" d="M103.838 36.9124C103.838 36.9124 103.1 36.107 102.327 35.7895C101.555 35.4718 101.971 34.3242 101.535 34.437C101.099 34.5497 100.722 35.0518 100.97 36.0354C101.218 37.019 100.97 37.7057 99.5138 37.3983C98.0575 37.0908 97.5225 36.5684 97.2155 37.1727C96.9083 37.7773 97.8892 38.7405 100.643 38.4434C100.643 38.4434 99.1374 38.8736 97.8001 38.3512C97.8001 38.3512 97.1264 38.0083 96.9977 38.6101C96.869 39.212 98.2855 40.2387 100.643 39.3822C100.643 39.3822 100.387 39.5812 99.914 39.7393C99.3334 39.9334 98.7101 39.9358 98.1185 39.7813C97.7445 39.6837 97.2716 39.6024 97.156 39.7756C96.9579 40.0728 98.3628 41.3535 101.178 40.5748C103.994 39.7962 103.838 38.1156 103.838 38.1156V36.9124Z" fill="#FD9697"/>
<path id="Vector_156" d="M100.776 48.4702H99.5487V54.2508H100.776V48.4702Z" fill="#2B2C3F"/>
<path id="Vector_157" d="M98.7637 92.938L92.4689 93.1777L92.5129 94.4129L98.8076 94.1731L98.7637 92.938Z" fill="#2B2C3F"/>
<path id="Vector_158" d="M111.498 93.0635H105.199V94.2995H111.498V93.0635Z" fill="#2B2C3F"/>
</g>
</g>
</g>
</g>
<defs>
<filter id="filter0_d_1_31" x="0" y="0" width="127" height="113" filterUnits="userSpaceOnUse" color-interpolation-filters="sRGB">
<feFlood flood-opacity="0" result="BackgroundImageFix"/>
<feColorMatrix in="SourceAlpha" type="matrix" values="0 0 0 0 0 0 0 0 0 0 0 0 0 0 0 0 0 0 127 0" result="hardAlpha"/>
<feOffset dy="4"/>
<feGaussianBlur stdDeviation="2"/>
<feComposite in2="hardAlpha" operator="out"/>
<feColorMatrix type="matrix" values="0 0 0 0 0 0 0 0 0 0 0 0 0 0 0 0 0 0 0.25 0"/>
<feBlend mode="normal" in2="BackgroundImageFix" result="effect1_dropShadow_1_31"/>
<feBlend mode="normal" in="SourceGraphic" in2="effect1_dropShadow_1_31" result="shape"/>
</filter>
</defs>
</svg>
